# xmcd
#
# Track frame offsets:
#	150
#	14607
#	25550
#	39785
#	53117
#	71440
#	84042
#	99972
#	111790
#	120870
#	134735
#	147545
#
# Disc length: 2047
#
# Revision: 3
# Processed by: cddbd v1.5.1PL0 Copyright (c) Steve Scherf et al.
# Submitted via: ExactAudioCopy v0.90b4
# Normalized: r1:DSETVAR1,TDELIM( - );r2:TSWAP
#
DISCID=9007fd0c
DTITLE=Various Artist - The Beverly Hillbillies Soundtrack
DYEAR=1900
DGENRE=Soundtrack
TTITLE0=Joe Diffie - White Lightnin'
TTITLE1=The Oak Ridge Boys - I Ain't  Never
TTITLE2=Lorrie Morgan - Crying Time
TTITLE3=Sammy Kershaw - I'm Movin' On
TTITLE4=Aaron Tippin - I'm So Lonely I Could Cry
TTITLE5=Jim Varney Featuring Ricky Skaggs - Hot Rod Lincoln
TTITLE6=Joe Walsh and Steve Earle - Honey Don't
TTITLE7=Doug Supernaw - Together Again
TTITLE8=Ricky Van Shelton - If You've Got The Money I've Got The Time
TTITLE9=Texas Tornadoes Vocal By Freddie Fender - Wasted Days And Wasted Nights
TTITLE10=Dolly Parton - If You Ain't Got Love
TTITLE11=Jerry Scoggins - The Ballad Of Jed Clampett
EXTD=
EXTT0=
EXTT1=
EXTT2=
EXTT3=
EXTT4=
EXTT5=
EXTT6=
EXTT7=
EXTT8=
EXTT9=
EXTT10=
EXTT11=
PLAYORDER=
